<?xml version="1.0" standalone="no"?>
<!DOCTYPE svg PUBLIC "-//W3C//DTD SVG 20010904//EN"
 "http://www.w3.org/TR/2001/REC-SVG-20010904/DTD/svg10.dtd">
<svg version="1.0" xmlns="http://www.w3.org/2000/svg"
 width="300.000000pt" height="300.000000pt" viewBox="0 0 300.000000 300.000000"
 preserveAspectRatio="xMidYMid meet">
<metadata>
Created by potrace 1.11, written by Peter Selinger 2001-2013
</metadata>
<g transform="translate(0.000000,300.000000) scale(0.100000,-0.100000)"
fill="#000000" stroke="none">
<path d="M238 2605 l-238 -386 0 -97 1 -97 95 -74 96 -74 71 69 c40 38 120
116 180 174 59 57 107 101 107 97 0 -5 -28 -56 -63 -115 -66 -111 -177 -309
-177 -316 0 -2 61 -52 137 -112 l136 -108 368 375 c203 206 367 377 366 381
-4 11 -192 158 -203 158 -6 0 -108 -99 -228 -220 -119 -120 -216 -217 -216
-215 0 2 76 119 170 259 94 139 170 257 170 260 0 8 -214 176 -225 176 -5 0
-103 -95 -217 -211 -115 -116 -208 -208 -208 -205 0 4 74 117 164 253 l165
246 -104 83 c-57 46 -106 84 -107 84 -2 0 -110 -174 -240 -385z"/>
<path d="M1234 2051 c-76 -19 -133 -72 -287 -269 -118 -150 -148 -205 -155
-274 -6 -67 32 -142 106 -208 83 -74 152 -105 232 -105 112 1 148 30 334 265
127 160 148 200 149 279 0 76 -30 140 -99 207 -85 84 -198 126 -280 105z m157
-207 c18 -22 9 -36 -171 -263 -122 -154 -156 -191 -174 -189 -14 2 -22 11 -24
28 -2 19 28 63 124 185 216 275 216 274 245 239z"/>
<path d="M1850 1819 c-22 -28 -39 -56 -38 -61 3 -9 200 -168 208 -167 8 0 80
98 80 108 0 8 -64 61 -197 163 -8 6 -24 -7 -53 -43z"/>
<path d="M1549 1438 c-290 -368 -282 -358 -299 -358 -9 0 -21 5 -28 12 -6 6
-13 10 -15 7 -2 -2 -22 -27 -45 -56 l-43 -52 63 -51 c143 -115 223 -118 315
-10 119 139 493 624 486 630 -32 28 -201 160 -206 160 -3 0 -105 -127 -228
-282z"/>
<path d="M1995 1406 c-16 -8 -42 -25 -57 -38 -33 -28 -98 -107 -98 -118 0 -4
43 -42 95 -84 l94 -76 57 70 c58 72 61 74 88 64 26 -10 18 -44 -24 -101 -49
-64 -53 -64 -205 -23 -144 39 -174 39 -221 -2 -52 -46 -130 -152 -150 -204
-16 -41 -16 -47 0 -87 33 -88 110 -142 188 -135 l49 5 -22 -23 c-12 -13 -21
-25 -18 -27 162 -128 203 -157 209 -150 26 25 348 438 388 496 41 60 47 75 50
132 4 55 1 70 -24 116 -31 56 -117 135 -187 171 -54 27 -169 35 -212 14z m15
-461 c0 -3 -32 -46 -72 -96 -61 -75 -76 -89 -98 -87 -39 5 -37 40 6 99 44 60
86 89 132 89 17 0 32 -2 32 -5z"/>
<path d="M2370 829 c-173 -219 -315 -405 -315 -413 0 -19 195 -171 205 -160 4
5 47 58 94 118 47 60 86 104 86 97 0 -6 -29 -69 -65 -140 l-64 -130 102 -81
c56 -45 103 -77 105 -72 1 5 49 116 106 247 l103 237 134 93 c102 70 134 97
134 114 0 15 -23 40 -74 80 l-74 59 -89 -60 c-50 -33 -91 -58 -93 -56 -1 2 51
71 116 153 65 83 118 153 116 157 -3 12 -191 158 -202 157 -5 0 -152 -180
-325 -400z"/>
</g>
</svg>
